{"title":"Shetland S02E04 Dead Water pt2 720P x264 RB58.mp4","uid":9870048,"size":1067019925,"categoryP":"video","categoryS":"hd___tv_shows","magnet":"?xt=urn:btih:9c383f6da728236d71b301756d32d2176a4038a2&amp;dn=Shetland+S02E04+Dead+Water+pt2+720P+x264+RB58.mp4&amp;tr=udp%3A%2F%2Ftracker.openbittorrent.com%3A80&amp;tr=udp%3A%2F%2Fopen.demonii.com%3A1337&amp;tr=udp%3A%2F%2Ftracker.coppersurfer.tk%3A6969&amp;tr=udp%3A%2F%2Fexodus.desync.com%3A6969","seeders":2,"leechers":0,"uploader":"RedBaron58","files":1,"time":1396399870,"description":"Shetland Series 2 Episode 4  -  Dead Water pt 2  720P x264 \n &lt;a href=&quot;\nhttp://www.imdb.com/title/tt2396135/&quot; rel=&quot;nofollow&quot; target=&quot;_NEW&quot;&gt;\nhttp://www.imdb.com/title/tt2396135/&lt;/a&gt;\n\nPlease be patient My upload speed is limited, but I am online most the time and during the night.\nThank you for your kind comments and thumbs ups on my other torrents, your feedback is welcome.\n\n\nThe Scotland-based crime drama cosisting of three two-part stories starring Douglas Henshall.\n\n\nAbout the Episode:\nThe discovery of John Henderson's body leads DI Perez to wonder if this second killing is linked \nto the death of his journalist friend Jerry, a theory given greater weight by forensic \ninvestigator Willow Reeves' finds. \nBut then the case takes another surprising turn with the arrival of Jerry's fiancee, \ncarrying a memory stick he gave to her for safekeeping several weeks earlier.\n\n\nI hope you enjoy.\n\nGeneral\nComplete name                            : G:Shetland S02E04 Dead Water pt2 720P x264 RB58.mp4\nFormat                                   : MPEG-4\nFormat profile                           : Base Media\nCodec ID                                 : isom\nFile size                                : 1 018 MiB\nDuration                                 : 59mn 14s\nOverall bit rate mode                    : Variable\nOverall bit rate                         : 2 401 Kbps\nWriting application                      : Lavf54.63.104\n\nVideo\nID                                       : 1\nFormat                                   : AVC\nFormat/Info                              : Advanced Video Codec\nFormat profile                           : &lt;a class=&quot;__cf_email__&quot; href=&quot;/cdn-cgi/l/email-protection&quot; data-cfemail=&quot;256d4c424d6569110b14&quot;&gt;[email&amp;#160;protected]&lt;/a&gt;&lt;script cf-hash='f9e31' type=&quot;text/javascript&quot;&gt;\n/* &lt;![CDATA[ */!function(){try{var t=&quot;currentScript&quot;in document?document.currentScript:function(){for(var t=document.getElementsByTagName(&quot;script&quot;),e=t.length;e--;)if(t[e].getAttribute(&quot;cf-hash&quot;))return t[e]}();if(t&amp;&amp;t.previousSibling){var e,r,n,i,c=t.previousSibling,a=c.getAttribute(&quot;data-cfemail&quot;);if(a){for(e=&quot;&quot;,r=parseInt(a.substr(0,2),16),n=2;a.length-n;n+=2)i=parseInt(a.substr(n,2),16)^r,e+=String.fromCharCode(i);e=document.createTextNode(e),c.parentNode.replaceChild(e,c)}}}catch(u){}}();/* ]]&gt; */&lt;/script&gt;\nFormat settings, CABAC                   : Yes\nFormat settings, ReFrames                : 2 frames\nCodec ID                                 : avc1\nCodec ID/Info                            : Advanced Video Coding\nDuration                                 : 59mn 14s\nBit rate mode                            : Variable\nBit rate                                 : 2 302 Kbps\nMaximum bit rate                         : 3 500 Kbps\nWidth                                    : 1 280 pixels\nHeight                                   : 720 pixels\nDisplay aspect ratio                     : 16:9\nFrame rate mode                          : Constant\nFrame rate                               : 25.000 fps\nColor space                              : YUV\nChroma subsampling                       : 4:2:0\nBit depth                                : 8 bits\nScan type                                : Progressive\nBits/(Pixel*Frame)                       : 0.100\nStream size                              : 976 MiB (96%)\n\nAudio\nID                                       : 2\nFormat                                   : AAC\nFormat/Info                              : Advanced Audio Codec\nFormat profile                           : LC\nCodec ID                                 : 40\nDuration                                 : 59mn 14s\nBit rate mode                            : Constant\nBit rate                                 : 93.5 Kbps\nChannel(s)                               : 2 channels\nChannel positions                        : Front: L R\nSampling rate                            : 48.0 KHz\nCompression mode                         : Lossy\nStream size                              : 39.6 MiB (4%)","torrent":{"xt":"urn:btih:9c383f6da728236d71b301756d32d2176a4038a2","amp;dn":"Shetland+S02E04+Dead+Water+pt2+720P+x264+RB58.mp4","amp;tr":["udp%3A%2F%2Ftracker.openbittorrent.com%3A80","udp%3A%2F%2Fopen.demonii.com%3A1337","udp%3A%2F%2Ftracker.coppersurfer.tk%3A6969","udp%3A%2F%2Fexodus.desync.com%3A6969"],"infoHash":"9c383f6da728236d71b301756d32d2176a4038a2","infoHashBuffer":{"type":"Buffer","data":[156,56,63,109,167,40,35,109,113,179,1,117,109,50,210,23,106,64,56,162]},"announce":[],"urlList":[]}}